HIERARCHY
ROOT Hips
{
	OFFSET 0.000000 0.000000 0.000000
	CHANNELS 6 Xposition Yposition Zposition Xrotation Yrotation Zrotation
	JOINT LeftUpLeg_virtual
	{
		OFFSET 0.000000 0.000000 0.000000
		CHANNELS 3 Xrotation Yrotation Zrotation
		JOINT LeftUpLeg
		{
			OFFSET 11.394100 -6.187798 -0.413800
			CHANNELS 3 Xrotation Yrotation Zrotation
			JOINT LeftLeg
			{
				OFFSET 0.430247 -32.302673 3.732800
				CHANNELS 3 Xrotation Yrotation Zrotation
				JOINT LeftFoot
				{
					OFFSET -0.430247 -48.264931 -6.423300
					CHANNELS 3 Xrotation Yrotation Zrotation
					JOINT LeftToeBase
					{
						OFFSET 4.230900 -16.068199 23.438400
						CHANNELS 3 Xrotation Yrotation Zrotation
						JOINT LeftToe_End
						{
							OFFSET 4.510700 0.695400 19.974600
							CHANNELS 3 Xrotation Yrotation Zrotation
							End Site
							{
								OFFSET 0 0 0
							}
						}
					}
				}
			}
		}
	}
	JOINT RightUpLeg_virtual
	{
		OFFSET 0.000000 0.000000 0.000000
		CHANNELS 3 Xrotation Yrotation Zrotation
		JOINT RightUpLeg
		{
			OFFSET -11.333700 -6.187798 -0.413800
			CHANNELS 3 Xrotation Yrotation Zrotation
			JOINT RightLeg
			{
				OFFSET -0.430392 -32.302628 3.733000
				CHANNELS 3 Xrotation Yrotation Zrotation
				JOINT RightFoot
				{
					OFFSET 0.430392 -48.264973 -6.423500
					CHANNELS 3 Xrotation Yrotation Zrotation
					JOINT RightToeBase
					{
						OFFSET -4.230900 -16.068199 23.438400
						CHANNELS 3 Xrotation Yrotation Zrotation
						JOINT RightToe_End
						{
							OFFSET -4.510700 0.695400 19.974600
							CHANNELS 3 Xrotation Yrotation Zrotation
							End Site
							{
								OFFSET 0 0 0
							}
						}
					}
				}
			}
		}
	}
	JOINT Spine_virtual
	{
		OFFSET 0.000000 0.000000 0.000000
		CHANNELS 3 Xrotation Yrotation Zrotation
		JOINT Spine
		{
			OFFSET -0.002400 12.777504 0.315300
			CHANNELS 3 Xrotation Yrotation Zrotation
			JOINT Spine1
			{
				OFFSET -0.002067 5.816869 0.032633
				CHANNELS 3 Xrotation Yrotation Zrotation
				JOINT Spine1_split
				{
					OFFSET -0.002067 5.816869 0.032633
					CHANNELS 3 Xrotation Yrotation Zrotation
					JOINT Spine2
					{
						OFFSET -0.002067 5.816869 0.032633
						CHANNELS 3 Xrotation Yrotation Zrotation
						JOINT Neck_virtual
						{
							OFFSET 0.000000 0.000000 0.000000
							CHANNELS 3 Xrotation Yrotation Zrotation
							JOINT Neck
							{
								OFFSET -0.003700 21.199493 -0.826900
								CHANNELS 3 Xrotation Yrotation Zrotation
								JOINT Head
								{
									OFFSET 0.000000 20.442200 4.834800
									CHANNELS 3 Xrotation Yrotation Zrotation
									JOINT HeadTop_End
									{
										OFFSET 0.000000 34.668396 4.968400
										CHANNELS 3 Xrotation Yrotation Zrotation
										End Site
										{
											OFFSET 0 0 0
										}
									}
								}
							}
						}
						JOINT LeftShoulder_virtual
						{
							OFFSET 0.000000 0.000000 0.000000
							CHANNELS 3 Xrotation Yrotation Zrotation
							JOINT LeftShoulder
							{
								OFFSET 3.288150 8.794197 -1.372250
								CHANNELS 3 Xrotation Yrotation Zrotation
								JOINT LeftShoulder_split
								{
									OFFSET 3.288150 8.794197 -1.372250
									CHANNELS 3 Xrotation Yrotation Zrotation
									JOINT LeftArm
									{
										OFFSET 11.953299 -2.279007 -0.146200
										CHANNELS 3 Xrotation Yrotation Zrotation
										JOINT LeftForeArm
										{
											OFFSET 18.448900 0.000000 0.000000
											CHANNELS 3 Xrotation Yrotation Zrotation
											JOINT LeftHand
											{
												OFFSET 29.527798 0.000000 0.000000
												CHANNELS 3 Xrotation Yrotation Zrotation
												End Site
												{
													OFFSET 0 0 0
												}
											}
										}
									}
								}
							}
						}
						JOINT RightShoulder_virtual
						{
							OFFSET 0.000000 0.000000 0.000000
							CHANNELS 3 Xrotation Yrotation Zrotation
							JOINT RightShoulder
							{
								OFFSET -3.249400 8.794197 -1.372250
								CHANNELS 3 Xrotation Yrotation Zrotation
								JOINT RightShoulder_split
								{
									OFFSET -3.249400 8.794197 -1.372250
									CHANNELS 3 Xrotation Yrotation Zrotation
									JOINT RightArm
									{
										OFFSET -11.953299 -2.279007 -0.146200
										CHANNELS 3 Xrotation Yrotation Zrotation
										JOINT RightForeArm
										{
											OFFSET -18.448900 0.000000 0.000000
											CHANNELS 3 Xrotation Yrotation Zrotation
											JOINT RightHand
											{
												OFFSET -29.527802 0.000000 0.000000
												CHANNELS 3 Xrotation Yrotation Zrotation
												End Site
												{
													OFFSET 0 0 0
												}
											}
										}
									}
								}
							}
						}
					}
				}
			}
		}
	}
}
MOTION
Frames: 10
Frame Time: 0.03333333
-1.193543 89.261688 1.300011 0.000000 0.000000 0.000000 -2.332856 -12.445838 -1.196394 -37.417306 12.924192 12.241151 48.363521 4.925093 11.113747 -11.567696 2.113963 -11.908236 -2.896788 -0.068411 -0.877773 0.000000 0.000000 0.000000 -2.677912 -10.429722 -0.847344 -32.663324 -21.251488 -10.613311 45.273748 -1.776000 -12.888897 -13.986556 0.402267 9.736438 -0.232513 0.565370 -0.627157 0.000000 0.000000 0.000000 -1.641379 -15.006132 -1.182371 3.875793 0.611093 1.177405 1.437471 1.446939 0.065955 2.522325 -0.635738 -0.555260 0.000000 0.000000 0.000000 0.599080 1.244794 0.184298 0.952678 -0.431644 4.344463 10.870275 12.473939 -3.406557 0.000000 0.000000 0.000000 1.704117 1.188178 -0.480110 0.653380 -0.029206 16.831092 1.666060 1.744886 -2.343586 -53.279495 -50.878089 -50.595200 -3.552562 -59.659974 -3.447789 0.000000 0.000000 0.000000 1.351268 1.555675 0.506659 0.594072 -1.876137 1.570259 -0.503848 2.368358 -0.092854 -112.886348 75.448435 107.670460 -2.655811 25.378476 1.250633 0.000000 0.000000 0.000000 
-1.031960 89.186913 1.121704 0.000000 0.000000 0.000000 -2.262577 -12.558999 -1.186383 -37.311981 12.704639 12.201459 48.088223 5.226617 11.090034 -11.715998 2.180401 -11.762313 -2.440176 -0.018296 -1.173946 0.000000 0.000000 0.000000 -2.661884 -10.614039 -0.803289 -32.343285 -21.269211 -10.690604 45.174813 -1.983856 -12.659745 -14.027446 0.293922 9.597551 0.125935 0.622958 -0.716056 0.000000 0.000000 0.000000 -1.985626 -15.296519 -1.327448 3.694857 0.667044 1.195725 1.140925 1.462175 0.128316 1.990631 -0.603521 -0.295457 0.000000 0.000000 0.000000 0.823626 1.259925 0.192466 0.858612 -0.536959 4.489626 11.641871 12.620117 -3.763140 0.000000 0.000000 0.000000 1.704105 1.209631 -0.389629 0.570168 0.227623 16.723728 1.995805 1.458503 -2.528745 -51.109261 -50.299654 -50.049249 -2.799289 -59.635686 -2.766493 0.000000 0.000000 0.000000 1.379970 1.532956 0.482863 0.503859 -2.239153 1.121524 0.322575 2.445010 -0.312589 -110.600065 75.803898 105.273740 -2.394308 26.007443 1.151556 0.000000 0.000000 0.000000 
-0.713721 89.040657 0.895786 0.000000 0.000000 0.000000 -2.206178 -12.963913 -1.173170 -37.245718 12.454707 11.964287 48.012774 5.697825 11.076219 -11.794149 2.274597 -11.898729 -1.893152 0.059595 -1.416669 0.000000 0.000000 0.000000 -2.712645 -11.137989 -0.836992 -32.348671 -21.226152 -10.826022 45.457006 -2.170128 -12.392382 -13.764179 0.181407 9.658787 -0.139459 0.730567 -0.900825 0.000000 0.000000 0.000000 -2.208477 -16.083478 -1.413408 3.461566 0.941667 1.292098 0.932165 1.698326 0.316145 1.760704 -1.112353 0.166908 0.000000 0.000000 0.000000 1.060649 1.504803 0.246783 0.559709 -0.530505 4.806328 12.124306 13.281893 -4.477729 0.000000 0.000000 0.000000 1.689014 1.475164 -0.170647 0.390635 0.382894 16.386206 2.241567 1.185573 -2.175555 -48.388451 -50.263024 -49.136623 -2.448528 -60.116033 -2.282290 0.000000 0.000000 0.000000 1.506280 1.703879 0.480541 0.365087 -2.313711 0.344622 1.027486 2.255237 -0.304447 -110.421408 76.581003 104.536967 -2.034754 27.467242 1.018817 0.000000 0.000000 0.000000 
-0.245618 88.861267 0.612175 0.000000 0.000000 0.000000 -2.167368 -13.549821 -1.137971 -37.224599 12.223004 11.501501 48.156973 6.274053 11.059194 -11.813482 2.382325 -12.233871 -1.517543 0.136020 -1.479835 0.000000 0.000000 0.000000 -2.736451 -12.089422 -0.888989 -32.658550 -21.003815 -10.958918 46.019499 -2.376640 -12.149945 -13.405640 0.101305 9.692038 -0.749465 0.836851 -0.996060 0.000000 0.000000 0.000000 -2.248625 -17.201879 -1.410812 3.226603 1.370820 1.550418 0.982881 2.083260 0.637507 2.147490 -2.281960 0.717211 0.000000 0.000000 0.000000 1.358530 1.914777 0.411225 0.064173 -0.376419 5.120892 12.161370 14.394955 -5.452414 0.000000 0.000000 0.000000 1.686286 1.905294 0.173162 0.174765 0.277701 15.938728 2.278778 1.266524 -1.760233 -45.808583 -50.546135 -47.946787 -2.466370 -60.517136 -1.982748 0.000000 0.000000 0.000000 1.751768 2.021865 0.569025 0.227082 -2.002513 -0.544931 1.510211 1.744463 -0.150865 -112.762960 77.545241 105.818598 -1.677076 29.082474 0.837395 0.000000 0.000000 0.000000 
0.413610 88.651085 0.302288 0.000000 0.000000 0.000000 -2.179716 -14.240104 -1.045497 -37.162352 12.099242 10.786087 48.394691 6.921916 10.965832 -11.817966 2.510939 -12.514631 -1.445347 0.204172 -1.374317 0.000000 0.000000 0.000000 -2.773019 -13.291371 -0.920479 -33.256235 -20.528858 -11.100122 46.852335 -2.700142 -11.959835 -12.934639 0.016467 9.447501 -0.931970 0.915892 -0.830237 0.000000 0.000000 0.000000 -2.058785 -18.275705 -1.317936 3.045097 1.797121 1.993497 1.292662 2.471387 1.063859 2.433419 -3.256940 0.786948 0.000000 0.000000 0.000000 1.702990 2.319054 0.725737 -0.603714 -0.058652 5.280880 11.816565 15.781787 -6.508611 0.000000 0.000000 0.000000 1.716327 2.339930 0.624296 -0.051325 -0.146890 15.479294 1.913289 1.710102 -1.623908 -43.597033 -50.781415 -46.613548 -2.756211 -60.306363 -1.815389 0.000000 0.000000 0.000000 2.069228 2.379745 0.805097 0.101656 -1.343592 -1.407599 1.907566 0.900931 0.107352 -117.815982 78.233970 109.284782 -1.465873 30.313909 0.658759 0.000000 0.000000 0.000000 
1.240029 88.445236 0.004848 0.000000 0.000000 0.000000 -2.248939 -15.000673 -0.867954 -37.051270 12.080814 9.845734 48.559814 7.553195 10.742755 -11.827897 2.653758 -12.591169 -1.549819 0.268512 -1.238768 0.000000 0.000000 0.000000 -2.747016 -14.519382 -0.850953 -34.383381 -19.813277 -11.395999 47.996361 -3.112833 -11.836188 -12.086381 -0.071848 9.087800 -0.646369 0.946591 -0.403802 0.000000 0.000000 0.000000 -1.752546 -19.183280 -1.200703 2.939597 2.025719 2.581438 1.795476 2.702790 1.541887 2.739314 -3.967577 0.813315 0.000000 0.000000 0.000000 2.090395 2.528845 1.160209 -1.362126 0.346924 5.202510 11.288973 17.162242 -7.341974 0.000000 0.000000 0.000000 1.845613 2.594115 1.129391 -0.287734 -0.759196 15.222443 1.705099 2.503449 -1.711356 -42.326993 -51.082111 -45.842266 -3.092294 -59.451927 -1.684055 0.000000 0.000000 0.000000 2.418137 2.620886 1.184477 -0.011937 -0.542467 -2.126069 2.180377 0.191117 0.413703 -123.310268 78.154836 112.956350 -1.485720 30.814494 0.505627 0.000000 0.000000 0.000000 
2.136016 88.290123 -0.270126 0.000000 0.000000 0.000000 -2.363325 -15.730680 -0.646361 -36.883964 12.074449 8.841787 48.599265 8.040651 10.410919 -11.798130 2.768502 -12.424120 -1.575132 0.328844 -1.203485 0.000000 0.000000 0.000000 -2.649649 -15.424007 -0.695141 -36.020498 -18.938428 -11.967900 49.249834 -3.365556 -11.844094 -10.678518 -0.056955 9.159617 -0.434447 0.916959 0.012472 0.000000 0.000000 0.000000 -1.464689 -19.859922 -1.143007 2.902665 1.921830 3.180950 2.383779 2.631909 1.968411 2.518494 -3.793706 0.445153 0.000000 0.000000 0.000000 2.487719 2.431315 1.610677 -1.896862 0.731769 4.973587 10.998644 18.075430 -7.505949 0.000000 0.000000 0.000000 2.096470 2.527711 1.607248 -0.557518 -1.211554 15.248204 1.472550 3.127013 -2.222623 -42.067777 -51.762739 -46.076121 -3.036568 -58.190275 -1.337009 0.000000 0.000000 0.000000 2.703805 2.567584 1.613329 -0.124355 0.059728 -2.651380 2.411437 -0.074955 0.654459 -126.824387 77.426861 115.081980 -1.692515 30.628853 0.348922 0.000000 0.000000 0.000000 
3.011043 88.205376 -0.446579 0.000000 0.000000 0.000000 -2.498951 -16.327615 -0.469433 -36.598670 12.029149 7.935013 48.497475 8.285777 9.965997 -11.898295 2.796835 -11.967148 -1.343565 0.375131 -1.304724 0.000000 0.000000 0.000000 -2.515808 -15.806687 -0.561820 -37.795227 -18.196222 -12.733189 50.266180 -3.386260 -12.029786 -8.910085 0.062537 9.848337 -0.507083 0.861082 0.180787 0.000000 0.000000 0.000000 -1.347649 -20.089239 -1.290573 2.911220 1.431587 3.604882 2.876905 2.180955 2.227561 2.104069 -2.989024 -0.278159 0.000000 0.000000 0.000000 2.807405 1.934805 1.929375 -1.911246 0.957879 4.757246 11.249736 17.917342 -6.527057 0.000000 0.000000 0.000000 2.438052 2.053651 1.941850 -0.906396 -1.302982 15.739064 1.157237 3.532369 -2.764602 -42.474662 -53.146569 -47.204892 -2.548643 -56.744778 -0.774758 0.000000 0.000000 0.000000 2.906370 2.119873 1.951452 -0.253791 0.251388 -3.014069 2.676271 -0.062556 0.777214 -127.178068 76.236994 115.077513 -2.019194 30.060291 0.160825 0.000000 0.000000 0.000000 
3.666700 88.190414 -0.393379 0.000000 0.000000 0.000000 -2.643858 -16.683534 -0.524268 -36.223690 11.843953 7.395172 48.245232 8.221243 9.459143 -12.284578 2.680732 -11.274146 -0.990709 0.382279 -1.440946 0.000000 0.000000 0.000000 -2.419286 -15.662822 -0.648351 -39.148257 -17.990894 -13.425866 50.734669 -3.340503 -12.310822 -7.343083 0.142735 10.802083 -0.561174 0.797186 0.045229 0.000000 0.000000 0.000000 -1.541564 -19.882095 -1.791963 2.906256 0.595864 3.636628 3.251201 1.388386 2.206376 1.894737 -1.666291 -0.661633 0.000000 0.000000 0.000000 2.995539 1.109760 1.973444 -1.146605 0.935806 4.766331 12.317110 16.302605 -4.039132 0.000000 0.000000 0.000000 2.864285 1.179166 2.015315 -1.322029 -1.018897 16.830426 0.569896 3.759861 -3.054481 -43.507103 -55.299233 -49.070633 -1.639466 -55.196316 -0.014546 0.000000 0.000000 0.000000 3.062446 1.295035 2.031580 -0.376689 -0.106881 -3.068298 2.684484 0.200131 0.646943 -124.679134 74.958854 113.464482 -2.368198 29.439051 -0.059650 0.000000 0.000000 0.000000 
3.971856 88.236069 -0.173874 0.000000 0.000000 0.000000 -2.851668 -16.616307 -1.011706 -35.824721 11.451401 7.470211 47.965570 7.797494 8.973958 -12.911201 2.417182 -10.500519 -0.797695 0.348839 -1.509590 0.000000 0.000000 0.000000 -2.437525 -14.923900 -1.194879 -39.449151 -18.672523 -13.673901 50.457264 -3.436920 -12.546501 -6.672802 0.017682 11.540329 -0.296034 0.746946 -0.280896 0.000000 0.000000 0.000000 -1.903683 -19.268700 -2.717427 2.820681 -0.426448 3.132505 3.504886 0.387714 1.828474 1.405577 -0.301019 -0.950962 0.000000 0.000000 0.000000 2.990997 0.131054 1.638363 0.461393 0.682550 5.098682 14.174861 13.432224 -0.092862 0.000000 0.000000 0.000000 3.319862 0.084774 1.744525 -1.738405 -0.517684 18.403842 -0.396245 3.823209 -3.081495 -45.136369 -57.655539 -51.493489 -0.483185 -53.455164 0.836120 0.000000 0.000000 0.000000 3.177857 0.247731 1.764060 -0.477722 -0.914190 -2.856946 2.727229 0.295414 0.311825 -120.756488 73.993393 111.406655 -2.682939 29.057442 -0.271855 0.000000 0.000000 0.000000 
